<svg xmlns="http://www.w3.org/2000/svg" viewBox="0 0 82.931 42.115"><defs><style>.cls-1{fill:none;stroke:#fff;stroke-miterlimit:10;stroke-width:0.293px;}.cls-2{fill:#fff;}</style></defs><g id="Layer_2" data-name="Layer 2"><g id="Layer_1-2" data-name="Layer 1"><line class="cls-1" x1="40.735" y1="33.66" x2="82.894" y2="33.66"/><polygon class="cls-2" points="40.819 37.862 41.399 37.862 42.91 41.341 44.421 37.862 44.971 37.862 44.971 42.009 44.585 42.009 44.585 38.354 44.573 38.354 42.992 42.009 42.822 42.009 41.217 38.354 41.205 38.354 41.205 42.009 40.819 42.009 40.819 37.862"/><polygon class="cls-2" points="46.599 37.862 49.135 37.862 49.135 38.214 46.985 38.214 46.985 39.689 49 39.689 49 40.041 46.985 40.041 46.985 41.657 49.229 41.657 49.229 42.009 46.599 42.009 46.599 37.862"/><polygon class="cls-2" points="50.489 37.862 51.069 37.862 52.58 41.341 54.091 37.862 54.641 37.862 54.641 42.009 54.255 42.009 54.255 38.354 54.243 38.354 52.662 42.009 52.492 42.009 50.887 38.354 50.876 38.354 50.876 42.009 50.489 42.009 50.489 37.862"/><path class="cls-2" d="M56.268,37.862h1.2c.633,0,1.335.158,1.335,1.095a.847.847,0,0,1-.743.861v.012a.968.968,0,0,1,.925,1.019c0,.954-.826,1.159-1.388,1.159H56.268Zm.387,1.792h.8c.8,0,.955-.439.955-.7,0-.58-.41-.744-.9-.744h-.855Zm0,2h.884c.908,0,1.054-.5,1.054-.8,0-.615-.5-.856-1-.856h-.943Z"/><polygon class="cls-2" points="60.447 37.862 62.983 37.862 62.983 38.214 60.833 38.214 60.833 39.689 62.848 39.689 62.848 40.041 60.833 40.041 60.833 41.657 63.076 41.657 63.076 42.009 60.447 42.009 60.447 37.862"/><path class="cls-2" d="M64.357,37.863h1.09c.328,0,1.476,0,1.476,1.089a1.049,1.049,0,0,1-1.061,1.066l1.207,1.991H66.63l-1.165-1.968h-.721v1.968h-.387Zm.387,1.827h.82c.814,0,.972-.451.972-.738s-.158-.738-.972-.738h-.82Z"/><path class="cls-2" d="M68.426,41.242a1.049,1.049,0,0,0,.949.521.844.844,0,0,0,.931-.814c0-1.16-2.138-.48-2.138-2.056a1.2,1.2,0,0,1,1.33-1.136,1.349,1.349,0,0,1,1.13.521l-.334.241a.928.928,0,0,0-.808-.411c-.5,0-.931.258-.931.785,0,1.248,2.138.5,2.138,2.056A1.188,1.188,0,0,1,69.4,42.115a1.557,1.557,0,0,1-1.347-.627Z"/><path class="cls-2" d="M44.018,10.958c-2.554,0-3.233-1.254-3.233-2.842V5.482c0-1.738.484-3.221,3.417-3.221a3.6,3.6,0,0,1,2.382.643c.126.127-.311,1.036-.472.933a2.9,2.9,0,0,0-1.829-.5c-1.427,0-2.071.472-2.071,2.186V7.99c0,1.392.483,1.955,1.783,1.955,1.035,0,1.553-.322,1.553-1.461V7.4c0-.127-.011-.242-.218-.242l-.783-.011c-.161,0-.23-.012-.23-.2V6.379c0-.115,0-.207.161-.207h1.887c.46,0,.518.081.518.472V8.266c0,1.254-.276,2.692-2.865,2.692"/><path class="cls-2" d="M52.507,6.977c-.161.046-.161.035-.092.173L54,10.406c.149.31.126.4-.1.4H52.875c-.207,0-.241-.092-.333-.31L51.069,7.414a.177.177,0,0,0-.2-.114H49.688c-.126,0-.126.034-.126.184V10.44c0,.3-.069.368-.276.368h-.9c-.253,0-.23-.138-.23-.4V2.686c0-.218.034-.3.275-.3H50.9c2.059,0,3.152.9,3.152,2.451a2.226,2.226,0,0,1-1.542,2.139M50.839,3.434h-1.07c-.173.011-.207.115-.207.207V5.988c0,.207.046.218.23.218h1.415a1.293,1.293,0,0,0,1.438-1.368c0-1.047-.828-1.4-1.806-1.4"/><path class="cls-2" d="M57.913,10.958c-1.139,0-3.152-.242-3.152-2.416V5.148c0-2.059,1-2.887,3.118-2.887,1.7,0,3.129.643,3.129,2.852V8.185c0,2.7-2.106,2.773-3.1,2.773m1.7-5.764c0-1.254-.575-1.806-1.68-1.806-1.357,0-1.818.644-1.818,1.852v3a1.587,1.587,0,0,0,1.795,1.576c.932,0,1.7-.288,1.7-1.8Z"/><path class="cls-2" d="M64.757,10.958c-1.3,0-2.922-.564-2.922-2.566V2.686c0-.218.046-.288.2-.3h.875c.2,0,.287.081.287.38V7.955c0,1.185.645,1.853,1.565,1.853,1.277,0,1.588-.725,1.588-1.876V2.686c0-.218.045-.288.2-.3h.9c.2,0,.288.081.288.38V8.2c0,2.416-1.726,2.761-2.968,2.761"/><path class="cls-2" d="M71.521,7.794H70.209c-.161,0-.184.035-.184.23V10.44c0,.3-.069.368-.276.368h-.9c-.253,0-.23-.138-.23-.4V2.686c0-.218.035-.3.276-.3H71.36c2.116,0,3.152.9,3.152,2.669s-.99,2.738-2.991,2.738M71.3,3.434h-1.07c-.173.011-.207.115-.207.207V6.483c0,.2.046.218.23.218h1.392c.828,0,1.45-.495,1.45-1.7,0-1.116-.817-1.565-1.795-1.565"/><path class="cls-2" d="M43.937,21.069c-1.139,0-3.152-.242-3.152-2.416V15.259c0-2.059,1-2.887,3.118-2.887,1.7,0,3.129.644,3.129,2.853V18.3c0,2.7-2.1,2.773-3.095,2.773m1.7-5.764c0-1.254-.575-1.806-1.68-1.806-1.357,0-1.817.644-1.817,1.852v3a1.586,1.586,0,0,0,1.794,1.576c.932,0,1.7-.288,1.7-1.794Z"/><path class="cls-2" d="M52.047,13.556H49.505c-.254,0-.3.092-.3.184V16c0,.219.069.265.253.265h2.209c.322,0,.369.069.345.207l-.046.655c-.046.231-.31.207-.54.207H49.493c-.219,0-.265.081-.265.277v3.106c0,.161-.069.207-.184.207h-.92c-.149,0-.242-.08-.242-.334V12.877c0-.218.012-.379.219-.379h4.026c.277,0,.311.069.311.184v.632c0,.208-.115.242-.391.242"/><path class="cls-2" d="M59.891,20.919H55.519c-.149,0-.264-.08-.264-.334V12.877c0-.218.011-.379.218-.379h4.165c.276,0,.311.023.311.184v.678c0,.185-.207.185-.529.185H56.865c-.252,0-.3.092-.3.184v1.99c0,.219.07.264.254.264H59.1c.323,0,.369.058.346.207l-.081.645c-.035.241-.322.218-.541.218h-1.91c-.241,0-.322.069-.322.265v2.255c0,.265.138.253.334.253h2.784c.3,0,.426.035.426.218v.668c0,.161-.127.207-.242.207"/><path class="cls-2" d="M62.053,20.919h-.886c-.207,0-.264-.069-.264-.322V12.751c0-.219.057-.253.31-.253h.852c.207,0,.23.069.23.322v7.835c0,.2-.035.264-.242.264"/><path class="cls-2" d="M66.378,21.069c-2.554,0-3.233-1.254-3.233-2.842V15.593c0-1.738.484-3.221,3.417-3.221a3.586,3.586,0,0,1,2.382.644c.126.126-.311,1.035-.472.932a2.9,2.9,0,0,0-1.829-.5c-1.427,0-2.071.472-2.071,2.186V18.1c0,1.392.483,1.956,1.783,1.956,1.035,0,1.553-.323,1.553-1.462V17.514c0-.126-.011-.242-.218-.242l-.783-.011c-.161,0-.23-.012-.23-.2V16.49c0-.115,0-.207.161-.207h1.887c.46,0,.517.08.517.472v1.622c0,1.254-.275,2.692-2.864,2.692"/><path class="cls-2" d="M75.984,20.919h-.863c-.184,0-.276-.08-.276-.334V17.307c0-.207-.035-.231-.219-.231H71.635c-.138,0-.184.012-.184.2v3.279c0,.3-.069.368-.345.368h-.8c-.2,0-.242-.115-.242-.426V12.8c0-.219.046-.3.253-.3h.829c.252,0,.31.08.31.379v2.888c0,.184.081.218.265.218h2.933c.138,0,.2-.057.2-.2v-2.98c0-.218.081-.31.322-.31h.8c.265,0,.265.092.265.287v7.766c0,.3-.023.368-.253.368"/><path class="cls-2" d="M82.689,13.568H80.825c-.23,0-.264.035-.264.219V20.54c0,.3-.035.38-.288.38h-.794c-.253,0-.3-.046-.3-.38V13.787c0-.184-.034-.219-.265-.219H77.074c-.206,0-.241-.057-.241-.172v-.714c0-.161.081-.184.322-.184H82.6c.23,0,.334.012.334.161V13.4c0,.1-.035.172-.242.172"/><path class="cls-2" d="M44.9,29.458h-.308c-.131,0-.112-.047-.168-.243L43.9,27.5H41.455l-.514,1.716c-.056.2-.074.243-.177.243h-.326c-.084,0-.094-.009,0-.308l1.893-6.222c.066-.215.113-.3.271-.3h.215c.158,0,.2.083.27.3l1.894,6.222c.093.3.009.308-.084.308m-2.211-6.129-1.1,3.75h2.193Z"/><path class="cls-2" d="M47.677,29.579a1.987,1.987,0,0,1-2.145-2.08V22.872c0-.178.018-.234.065-.243h.345c.065,0,.1.065.1.308v4.394a1.6,1.6,0,0,0,1.633,1.809c1.315,0,1.651-.662,1.651-1.828v-4.44c0-.178.019-.234.066-.243h.345c.065,0,.1.065.1.308v4.4a1.95,1.95,0,0,1-2.164,2.239"/><path class="cls-2" d="M52.613,29.589a3.664,3.664,0,0,1-1.848-.383c-.093-.055.085-.522.2-.466a3.155,3.155,0,0,0,1.633.4c1.017,0,1.894-.317,1.894-1.287,0-.812-.355-1.222-1.661-1.736-1.091-.428-1.8-.9-1.8-1.987,0-.718.55-1.6,2.173-1.6a3.553,3.553,0,0,1,1.5.2c.178.065-.018.485-.149.439a4.151,4.151,0,0,0-1.306-.2c-1.306,0-1.689.494-1.689,1.212,0,.784.476,1.111,1.642,1.559,1.465.559,1.819,1.222,1.819,2,0,1.324-1.119,1.847-2.406,1.847"/><path class="cls-2" d="M59.694,23.086H58.108c-.2,0-.214.028-.214.177V29.15c0,.242.018.308-.121.308h-.28c-.112,0-.122-.038-.122-.308V23.263c0-.149-.009-.177-.214-.177h-1.6c-.13,0-.168-.009-.168-.075v-.289c0-.075.01-.093.178-.093h4.1c.15,0,.187,0,.187.065v.317c0,.056-.037.075-.159.075"/><path class="cls-2" d="M63.343,26.23c-.121.019-.13.019-.075.121l1.437,2.78c.149.3.093.327-.037.327h-.327c-.084,0-.131-.066-.214-.243l-1.39-2.826c-.038-.075-.084-.094-.178-.094H61.235c-.112,0-.112.019-.112.159v2.7c0,.243-.01.3-.094.3h-.317c-.149,0-.131-.112-.131-.327v-6.26c0-.177,0-.242.169-.242H62.3c1.576,0,2.444.569,2.444,1.828a1.809,1.809,0,0,1-1.4,1.773m-1.017-3.172H61.272c-.14.009-.168.093-.168.168v2.463c0,.177.037.177.186.177H62.7a1.317,1.317,0,0,0,1.493-1.381c0-1.129-.84-1.427-1.866-1.427"/><path class="cls-2" d="M70.415,29.458h-.308c-.131,0-.112-.047-.168-.243L69.417,27.5H66.973l-.514,1.716c-.056.2-.074.243-.177.243h-.326c-.084,0-.094-.009,0-.308l1.893-6.222c.065-.215.112-.3.271-.3h.215c.158,0,.205.083.27.3L70.5,29.15c.094.3.01.308-.083.308M68.2,23.329l-1.1,3.75H69.3Z"/><path class="cls-2" d="M75.024,29.458H71.758c-.112,0-.148-.056-.148-.326v-6.26c0-.177.008-.243.139-.243h.242c.14,0,.14.066.14.308v5.914c0,.15.065.178.215.178H75c.15,0,.14.009.14.149v.14c0,.14,0,.14-.12.14"/><path class="cls-2" d="M76.358,29.458h-.326c-.075,0-.075-.047-.075-.233V22.788c0-.14.028-.159.177-.159h.2c.149,0,.14.028.14.224v6.4c0,.158,0,.2-.121.2"/><path class="cls-2" d="M82.273,29.458h-.308c-.131,0-.112-.047-.168-.243L81.275,27.5H78.831l-.514,1.716c-.056.2-.074.243-.177.243h-.326c-.084,0-.094-.009,0-.308l1.894-6.222c.065-.215.112-.3.27-.3h.215c.158,0,.2.083.27.3l1.894,6.222c.093.3.009.308-.084.308m-2.211-6.129-1.1,3.75h2.193Z"/><polygon class="cls-2" points="0 14.106 2.485 24.572 9.714 15.913 0 14.106"/><polygon class="cls-2" points="16.628 0.174 0.195 13.621 10.037 15.451 16.628 0.174"/><polygon class="cls-2" points="23.805 7.084 17.249 0.027 10.746 15.099 23.805 7.084"/><polygon class="cls-2" points="22.199 22.435 23.676 7.765 10.69 15.736 22.199 22.435"/><polygon class="cls-2" points="24.189 7.785 22.708 22.49 36.308 18.026 24.189 7.785"/><polygon class="cls-2" points="36.641 18.456 22.652 23.048 22.65 23.067 30.305 29.892 36.641 18.456"/><polygon class="cls-2" points="2.924 24.846 21.982 22.901 10.249 16.071 2.924 24.846"/><polygon class="cls-2" points="26.807 0 24.082 7.02 36.476 17.497 26.807 0"/></g></g></svg>