<svg xmlns="http://www.w3.org/2000/svg" viewBox="0 0 73.319 23.038"><defs><style>.cls-1{fill:#fff;}</style></defs><g id="Layer_2" data-name="Layer 2"><g id="Layer_1-2" data-name="Layer 1"><path class="cls-1" d="M39.5,17.764H38.145a.306.306,0,0,1-.3-.215l-1.109-3.195H30.411l-1.11,3.2a.32.32,0,0,1-.3.215H27.644L31.686,6.257a1.392,1.392,0,0,1,1.309-.928h1.97a.231.231,0,0,1,.2.115ZM36.24,12.929,34.088,6.753h-.812a.317.317,0,0,0-.3.215l-2.071,5.961Z"/><path class="cls-1" d="M50.418,8.143v1.64A2.825,2.825,0,0,1,47.6,12.6H43.976a.89.89,0,0,1-.961-.663v5.614a.219.219,0,0,1-.217.215H41.457V6.29a.961.961,0,0,1,.962-.961H47.6a2.823,2.823,0,0,1,2.817,2.814M48.861,8.01A1.257,1.257,0,0,0,47.6,6.753H43.33a.314.314,0,0,0-.315.316V10.86a.324.324,0,0,0,.315.314H47.6a1.259,1.259,0,0,0,1.26-1.258Z"/><path class="cls-1" d="M54.126,11.8v5.744a.22.22,0,0,1-.216.216H52.569V6.289a.961.961,0,0,1,.961-.961h5.2a2.613,2.613,0,0,1,2.817,2.665V9.6a2.651,2.651,0,0,1-2.255,2.568l2.651,5.6H60.5a.381.381,0,0,1-.3-.2l-2.518-5.318h-2.6c-.465,0-.812-.132-.928-.445Zm4.6-.978a1.26,1.26,0,0,0,1.259-1.26V8.009a1.256,1.256,0,0,0-1.259-1.256H54.441a.314.314,0,0,0-.315.315V10.51a.314.314,0,0,0,.315.316Z"/><path class="cls-1" d="M63.946,14.95V5.328h1.341a.22.22,0,0,1,.217.214v9.537a1.257,1.257,0,0,0,1.257,1.26H70.5a1.259,1.259,0,0,0,1.26-1.26V5.542a.219.219,0,0,1,.214-.214h1.342V14.95A2.823,2.823,0,0,1,70.5,17.763H66.761a2.811,2.811,0,0,1-2.815-2.813"/><path class="cls-1" d="M16.556,17.2l0,0a7.633,7.633,0,0,1-1.716,1.139,10.782,10.782,0,0,0,8-8.939,11.346,11.346,0,0,0-.594-2.081c0,.1,0,.2,0,.3a10.9,10.9,0,0,1-5.7,9.583"/><path class="cls-1" d="M23.037,11.77a11.259,11.259,0,0,1-8.862,6.861v0A7.645,7.645,0,0,1,4.149,13.346a12.622,12.622,0,0,0,1.373,5.579h0l.009.016,0,0a8.7,8.7,0,0,0,2.3,2.9,13.32,13.32,0,0,0,1.007.875q.535.128,1.09.2l.142.02c.052.006.1.011.154.018.114.013.226.024.34.034l.017,0q.482.041.974.041a11.574,11.574,0,0,0,1.4-.085l-.026-.007.062-.008-.036-.038a18.391,18.391,0,0,1-1.9-.553,15.019,15.019,0,0,1-3.108-1.618A12.168,12.168,0,0,0,10.776,21.9c.071.019.143.038.214.055l.086.022a12.108,12.108,0,0,0,4.909.158,11.546,11.546,0,0,0,6.65-7.584h0a11.558,11.558,0,0,0,.4-2.784"/><path class="cls-1" d="M3.773,13.416a12.5,12.5,0,0,1,.118-1.709c0-.063,0-.126,0-.191A7.577,7.577,0,0,1,5.306,7.093,10.747,10.747,0,0,0,1.383,15.4a10.875,10.875,0,0,0,.166,1.888,11.547,11.547,0,0,0,6.068,5.06,12.276,12.276,0,0,1-3.844-8.936"/><path class="cls-1" d="M6.4,5.864A7.589,7.589,0,0,1,8.107,4.7a10.781,10.781,0,0,0-7.92,8.912A11.258,11.258,0,0,0,.74,15.6a.644.644,0,0,0,.025.066L.78,15.7c0-.1-.006-.2-.006-.295A10.9,10.9,0,0,1,6.4,5.864"/><path class="cls-1" d="M19.253,9.582a12.411,12.411,0,0,1-.117,1.7c0,.062,0,.125,0,.189A7.553,7.553,0,0,1,17.641,16,10.786,10.786,0,0,0,21.482,5.73,11.551,11.551,0,0,0,15.418.677a12.226,12.226,0,0,1,3.835,8.905"/><path class="cls-1" d="M8.826,4.395v0a7.3,7.3,0,0,1,2.694-.5,7.589,7.589,0,0,1,7.36,5.746A12.64,12.64,0,0,0,17.509,4.1h0a13.292,13.292,0,0,0-2.435-3.045,9.185,9.185,0,0,0-1.158-.8l-.007,0a11.491,11.491,0,0,0-2.9-.234c-.523.023-.89.071-.89.071a18.567,18.567,0,0,1,1.895.554,15.154,15.154,0,0,1,3.109,1.678,13.454,13.454,0,0,0-1.642-.8A12.093,12.093,0,0,0,7.106.874,11.495,11.495,0,0,0,0,11.238,11.254,11.254,0,0,1,8.826,4.395"/><path class="cls-1" d="M13.407,1.488c.025.01.049.021.074.03a.07.07,0,0,0,.02.008c-.031-.011-.063-.025-.094-.038"/></g></g></svg>