<?xml version="1.0" encoding="utf-8"?>
<!-- Generator: Adobe Illustrator 25.0.0, SVG Export Plug-In . SVG Version: 6.00 Build 0)  -->
<svg version="1.1" id="Layer_1" xmlns="http://www.w3.org/2000/svg" xmlns:xlink="http://www.w3.org/1999/xlink" x="0px" y="0px"
	 viewBox="0 0 295 140" style="enable-background:new 0 0 295 140;" xml:space="preserve">
<style type="text/css">
	.st0{fill:#FFFFFF;}
</style>
<path class="st0" d="M166.1,137l29.8-0.2v0l23.2-0.2l-0.2-21.7l-13.4,0.1L228,86.7h0l23,27.9l-13.4,0.1l0.2,21.7l52.7-0.4l-0.2-21.7
	l-9.9,0.1l-37.9-45.9l35.7-44.8l11.3-0.1l-0.2-21.2l-52.7,0.4l0.2,21.2l12-0.1l-21.1,26.5l-21.6-26.2l12-0.1L217.9,3l-39.4,0.3v0
	L165,3.4 M165,3.4l-21.8,0.2l0.2,21.2l14.1-0.1l0.2,18.2c-8.2-5.8-18.3-9.2-29.3-9.1c-15.1,0.1-28.6,6.7-38,17.1
	C81,40.7,67.7,34.3,52.6,34.4C27.1,34.6,6,53.3,2,77.7c-0.5,2.9-0.7,5.9-0.7,8.9c0,2.9,0.3,5.6,0.7,8.4
	c4.2,24.6,25.7,43.2,51.4,42.9c15.1-0.1,28.3-6.7,37.4-17.1c9.5,10.2,23.2,16.6,38.3,16.5c11-0.1,21-3.6,29.2-9.6l0.1,9.3l7.7-0.1
	 M101.6,71.6C101.6,71.6,101.6,71.6,101.6,71.6 M78.8,71.7c-0.5,1.7-0.9,3.5-1.2,5.3h0c0,0,0,0,0,0l-53.8,0.4
	C27.5,65.2,38.9,56.1,52.5,56C64.1,55.9,73.8,62.3,78.8,71.7C78.8,71.7,78.8,71.7,78.8,71.7 M81.2,106.1
	C81.2,106.1,81.2,106.1,81.2,106.1l-6.1,0c-5.3,6.2-13.1,10.2-22,10.3c-13.8,0.1-25.5-9-29.2-21.6l53.8-0.4c0,0,0,0,0,0 M77.7,94.3
	c0.3,2,0.8,3.9,1.3,5.8c0.6,2,1.3,4,2.1,5.9 M90.8,120.8 M90.8,120.8 M99.5,94.2l3.5,0c0.4-2.7,0.6-5.5,0.6-8.4c0-3-0.3-6-0.8-8.9
	c-0.3-1.8-0.7-3.5-1.2-5.2c5-9.6,15-16.2,26.6-16.3c16.7-0.1,29.6,13.3,29.8,30l0,0.2c0.1,16.6-12.6,30.1-29.3,30.3
	c-11.6,0.1-21.7-6.3-26.8-15.9C100.9,98.1,100.1,96.2,99.5,94.2 M99.5,94.2 M179.4,111L179.4,111l-0.7-84 M178.7,27L178.7,27
	l34.4,41.7L179.4,111"/>
</svg>
