<svg xmlns="http://www.w3.org/2000/svg" viewBox="0 0 94.873 23.103"><defs><style>.cls-1{fill:#fff;}</style></defs><g id="Layer_2" data-name="Layer 2"><g id="Layer_1-2" data-name="Layer 1"><path class="cls-1" d="M.07,23.1A11.691,11.691,0,0,0,11.629,11.559,11.662,11.662,0,0,0,.085,0C-.018,0-.033.158.07.16a11.529,11.529,0,0,1,11.4,11.384A11.5,11.5,0,0,1,.085,22.944c-.1,0-.118.16-.015.159"/><path class="cls-1" d="M28.713,22.944a27.024,27.024,0,0,1-11.408-3.11c-3.163-1.559-7.507-4.29-7.587-8.275-.077-3.885,4.372-6.631,7.352-8.17A26.7,26.7,0,0,1,28.7.16c.1,0,.118-.16.015-.16a27.2,27.2,0,0,0-11.47,3.123c-2.935,1.446-6.8,3.82-7.551,7.295s2.179,6.214,4.788,7.975a29.543,29.543,0,0,0,11.694,4.5A16.684,16.684,0,0,0,28.7,23.1c.1,0,.118-.158.015-.159"/><path class="cls-1" d="M28.713,22.944a22.532,22.532,0,0,1-10.565-3.139c-3.01-1.69-6.459-4.483-6.531-8.246C11.547,7.9,15.071,5.12,17.9,3.443A22.236,22.236,0,0,1,28.7.16c.1,0,.118-.16.015-.16a22.824,22.824,0,0,0-11.12,3.438c-2.893,1.717-6.066,4.469-6.135,8.106-.068,3.534,3.178,6.273,5.891,7.973A22.494,22.494,0,0,0,28.7,23.1c.1,0,.118-.158.015-.159"/><path class="cls-1" d="M28.713,22.944A18.463,18.463,0,0,1,19.1,19.837c-2.849-1.828-5.517-4.714-5.582-8.278-.062-3.373,2.543-6.152,5.113-7.976A18.2,18.2,0,0,1,28.7.16c.1,0,.118-.161.015-.16a18.683,18.683,0,0,0-9.952,3.3c-2.793,1.853-5.34,4.732-5.4,8.245-.06,3.324,2.429,6.094,4.943,7.939A18.4,18.4,0,0,0,28.7,23.1c.1,0,.118-.158.015-.159"/><path class="cls-1" d="M28.713,22.944c-6.147-.074-13.188-4.738-13.3-11.385S22.706.232,28.7.16c.1,0,.118-.161.015-.16C22.476.076,15.366,4.809,15.255,11.544S22.621,23.03,28.7,23.1c.1,0,.118-.158.015-.159"/><path class="cls-1" d="M28.713,22.944a11.53,11.53,0,0,1-11.4-11.385A11.5,11.5,0,0,1,28.7.16c.1,0,.118-.161.015-.16A11.69,11.69,0,0,0,17.154,11.544,11.66,11.66,0,0,0,28.7,23.1c.1,0,.118-.158.015-.159"/><path class="cls-1" d="M.07,23.1a27.18,27.18,0,0,0,11.47-3.122c2.935-1.447,6.8-3.821,7.55-7.3.758-3.5-2.193-6.261-4.815-8.033A29.03,29.03,0,0,0,2.564.185,16.487,16.487,0,0,0,.247,0C.145,0,.129.159.232.16A26.571,26.571,0,0,1,11.438,3.207c3.19,1.569,7.545,4.324,7.626,8.337.077,3.886-4.371,6.632-7.351,8.171A26.7,26.7,0,0,1,.085,22.944c-.1,0-.118.16-.015.159"/><path class="cls-1" d="M.07,23.1a22.806,22.806,0,0,0,11.119-3.438c2.894-1.716,6.066-4.468,6.135-8.106.068-3.533-3.177-6.272-5.89-7.972A22.5,22.5,0,0,0,.085,0C-.018,0-.033.159.07.16A22.528,22.528,0,0,1,10.635,3.3c3.01,1.691,6.458,4.483,6.53,8.246.07,3.658-3.453,6.44-6.281,8.117a22.229,22.229,0,0,1-10.8,3.283c-.1,0-.118.16-.015.159"/><path class="cls-1" d="M.07,23.1a18.667,18.667,0,0,0,9.951-3.3c2.793-1.854,5.341-4.732,5.406-8.246.06-3.323-2.43-6.094-4.943-7.938A18.407,18.407,0,0,0,.085,0C-.018,0-.033.159.07.16A18.454,18.454,0,0,1,9.685,3.267C12.533,5.1,15.2,7.98,15.267,11.544c.062,3.374-2.543,6.153-5.113,7.977A18.215,18.215,0,0,1,.085,22.944c-.1,0-.118.16-.015.159"/><path class="cls-1" d="M.07,23.1c6.237-.075,13.347-4.808,13.458-11.544S6.162.073.085,0C-.018,0-.033.158.07.16,6.217.234,13.258,4.9,13.368,11.544S6.077,22.871.085,22.944c-.1,0-.118.16-.015.159"/><path class="cls-1" d="M34.9,13.347c0,1.741,0,3.174.091,3.935.054.526.163.925.707,1a7.974,7.974,0,0,0,.816.072c.108,0,.145.055.145.109,0,.091-.091.145-.29.145-1,0-2.14-.054-2.231-.054s-1.233.054-1.777.054c-.2,0-.29-.036-.29-.145,0-.054.036-.109.145-.109a2.819,2.819,0,0,0,.544-.072c.363-.073.453-.472.526-1,.091-.761.091-2.194.091-3.935V10.155c0-2.829,0-3.336-.037-3.917-.036-.616-.217-.924-.616-1.015a2.407,2.407,0,0,0-.562-.073c-.073,0-.146-.036-.146-.108,0-.109.091-.145.291-.145.6,0,1.741.053,1.831.053S35.374,4.9,35.917,4.9c.2,0,.291.036.291.145,0,.072-.073.108-.146.108a2.751,2.751,0,0,0-.453.055c-.49.09-.635.4-.671,1.033-.036.581-.036,1.088-.036,3.917Z"/><path class="cls-1" d="M49.361,5.35c.217-.6.29-.707.4-.707s.181.091.4.652c.272.69,3.119,8.179,4.225,10.936.653,1.614,1.179,1.9,1.56,2.013a2.357,2.357,0,0,0,.725.108c.109,0,.181.019.181.109,0,.109-.163.145-.362.145-.272,0-1.6,0-2.847-.036-.345-.018-.544-.018-.544-.127,0-.072.054-.109.127-.127.108-.036.217-.2.108-.489l-1.686-4.462a.159.159,0,0,0-.163-.108h-3.9a.19.19,0,0,0-.181.145l-1.089,3.21a3.826,3.826,0,0,0-.253,1.215c0,.362.38.525.689.525h.181c.127,0,.181.037.181.109,0,.109-.108.145-.272.145-.435,0-1.215-.054-1.414-.054s-1.2.054-2.049.054c-.236,0-.345-.036-.345-.145,0-.072.072-.109.163-.109.127,0,.381-.018.526-.036.834-.109,1.2-.8,1.524-1.7ZM51.247,12.6c.091,0,.091-.054.073-.127L49.6,7.581c-.091-.272-.181-.272-.272,0l-1.6,4.9c-.036.091,0,.127.054.127Z"/><path class="cls-1" d="M64.837,10.155c0-2.828,0-3.336-.037-3.917-.036-.616-.181-.906-.78-1.033A3.41,3.41,0,0,0,63.4,5.15c-.073,0-.145-.036-.145-.108,0-.109.091-.145.29-.145.816,0,1.959.054,2.049.054.2,0,1.578-.054,2.14-.054a5.585,5.585,0,0,1,3.319.8,3.176,3.176,0,0,1,1.251,2.467,5.593,5.593,0,0,1-2.194,4.188c1.487,1.9,2.719,3.519,3.771,4.643A3.756,3.756,0,0,0,76.1,18.3a4.373,4.373,0,0,0,.707.054c.091,0,.163.055.163.109,0,.109-.108.145-.434.145H75.245a3.7,3.7,0,0,1-1.94-.344A9.466,9.466,0,0,1,70.857,15.6c-.761-1-1.614-2.212-1.976-2.684a.293.293,0,0,0-.236-.109l-2.23-.036c-.092,0-.128.054-.128.145v.435c0,1.741,0,3.174.091,3.935.054.526.163.925.707,1a7.974,7.974,0,0,0,.816.072c.109,0,.145.055.145.109,0,.091-.09.145-.29.145-1,0-2.14-.054-2.23-.054-.018,0-1.161.054-1.7.054-.2,0-.29-.036-.29-.145,0-.054.036-.109.145-.109a2.819,2.819,0,0,0,.544-.072c.363-.073.453-.472.526-1,.091-.761.091-2.194.091-3.935Zm1.45,1.578a.234.234,0,0,0,.128.217,4.97,4.97,0,0,0,1.9.291,2.341,2.341,0,0,0,1.359-.345A3.309,3.309,0,0,0,70.785,9.1c0-2.266-1.2-3.626-3.138-3.626a5.439,5.439,0,0,0-1.215.109.218.218,0,0,0-.145.217Z"/><path class="cls-1" d="M82.85,10.155c0-2.829,0-3.337-.036-3.917-.036-.616-.181-.907-.78-1.034a3.411,3.411,0,0,0-.616-.054c-.073,0-.145-.036-.145-.109,0-.109.09-.145.29-.145.816,0,1.922.054,2.085.054S84.9,4.9,85.443,4.9c.2,0,.29.036.29.145,0,.073-.072.109-.145.109a2.715,2.715,0,0,0-.453.054c-.489.073-.635.4-.67,1.034-.037.58-.037,1.088-.037,3.917v2.539c0,2.611.58,3.736,1.36,4.479a3.548,3.548,0,0,0,2.738,1,3.805,3.805,0,0,0,2.847-1.305c.834-1.034,1.052-2.575,1.052-4.443V10.155c0-2.829,0-3.337-.036-3.917-.036-.616-.182-.907-.78-1.034a3.411,3.411,0,0,0-.616-.054c-.073,0-.146-.036-.146-.109,0-.109.091-.145.291-.145.816,0,1.813.054,1.922.054.127,0,.979-.054,1.524-.054.2,0,.289.036.289.145,0,.073-.073.109-.145.109a2.7,2.7,0,0,0-.453.054c-.489.109-.635.4-.671,1.034-.036.58-.036,1.088-.036,3.917V12.1c0,1.958-.218,4.135-1.669,5.423a5.308,5.308,0,0,1-3.736,1.342,5.569,5.569,0,0,1-3.735-1.288c-.889-.852-1.578-2.121-1.578-4.77Z"/></g></g></svg>